<svg class="active" stroke="#fff" fill="#fff" width="64" height="64" viewBox="0 0 48 48" xmlns="http://www.w3.org/2000/svg"><path d="M9.585 40.41q0-16.92-.045-17.19.09-1.351.945-1.396t1.08 1.17l-.135 16.56 5.4.09-.045-6.93q.75-6.255 7.215-5.4t5.88 8.235v4.14l5.49-.36.045-16.425q-.09-.9.945-1.215t1.125 1.26l-.09 16.65q-.225 2.16-3.6 2.07t-20.925-.18q-2.97.27-3.285-1.08"/><path d="M21.6 5.445 4.725 22.86q-1.305 1.305-.63 1.845t1.8-.705l16.74-17.52q.66-.72 1.365.045T42.705 24q.675.78 1.485 0t-3.825-4.56L24 4.59q-1.29-1.23-2.4.855"/></svg>